<svg width="483" height="831" viewBox="0 0 483 831" fill="none" xmlns="http://www.w3.org/2000/svg">
<rect width="483" height="831" fill="white"/>
<circle cx="420" cy="772" r="39" stroke="black" stroke-width="2"/>
<line x1="421" y1="745" x2="421" y2="799" stroke="black" stroke-width="2"/>
<line x1="393" y1="771" x2="447" y2="771" stroke="black" stroke-width="2"/>
<rect x="84" y="31" width="315" height="206.446" rx="12.5" fill="#ED4040" stroke="black" stroke-width="0.5" stroke-miterlimit="2.61313"/>
<path d="M375.061 222.894V224.154H369.613V222.894H375.061ZM369.613 226.158V224.862H375.061V226.158H369.613ZM368.725 227.37H369.613V226.926H375.061V227.334H375.997V222.126H368.725V227.37ZM374.509 220.278C374.809 219.798 375.133 219.114 375.445 218.49L374.629 218.298H377.005V217.494H372.709V216.402H371.797V217.494H367.657V218.298H374.461C374.281 218.85 373.921 219.63 373.645 220.134L374.185 220.278H370.309L370.921 220.122C370.813 219.618 370.513 218.862 370.153 218.31L369.301 218.49C369.613 219.03 369.913 219.762 370.009 220.278H366.973V221.094H377.593V220.278H374.509ZM383.833 221.814V223.65H380.977C381.013 223.302 381.025 222.954 381.025 222.642V221.814H383.833ZM387.745 223.65H384.697V221.814H387.745V223.65ZM388.633 221.058H380.149V222.642C380.149 223.89 379.957 225.582 378.673 226.818C378.865 226.938 379.225 227.25 379.345 227.43C380.233 226.578 380.653 225.486 380.869 224.43H387.745V225.03H388.633V221.058ZM389.389 218.178V217.398H384.709V216.378H383.821V217.398H379.165V218.178H383.821V219.354H379.873V220.122H388.873V219.354H384.709V218.178H389.389Z" fill="white" fill-opacity="0.45"/>
<path d="M101.689 222.808C101.689 224.077 101.473 225.02 101.039 225.638C100.605 226.255 99.9276 226.563 99.0058 226.563C98.0956 226.563 97.4218 226.263 96.9843 225.661C96.5468 225.056 96.3202 224.153 96.3046 222.954V221.507C96.3046 220.253 96.5214 219.321 96.955 218.712C97.3886 218.102 98.0683 217.798 98.994 217.798C99.912 217.798 100.588 218.093 101.021 218.683C101.455 219.268 101.678 220.175 101.689 221.401V222.808ZM100.605 221.325C100.605 220.407 100.476 219.739 100.219 219.321C99.9608 218.899 99.5526 218.688 98.994 218.688C98.4394 218.688 98.0351 218.897 97.7812 219.315C97.5273 219.733 97.3964 220.376 97.3886 221.243V222.977C97.3886 223.899 97.5214 224.581 97.787 225.022C98.0565 225.46 98.4628 225.679 99.0058 225.679C99.5409 225.679 99.9374 225.472 100.195 225.058C100.457 224.643 100.594 223.991 100.605 223.101V221.325ZM103.154 225.878C103.154 225.69 103.209 225.534 103.318 225.409C103.432 225.284 103.6 225.222 103.822 225.222C104.045 225.222 104.213 225.284 104.326 225.409C104.443 225.534 104.502 225.69 104.502 225.878C104.502 226.058 104.443 226.208 104.326 226.329C104.213 226.45 104.045 226.511 103.822 226.511C103.6 226.511 103.432 226.45 103.318 226.329C103.209 226.208 103.154 226.058 103.154 225.878ZM103.16 220.704C103.16 220.517 103.215 220.36 103.324 220.235C103.437 220.11 103.605 220.048 103.828 220.048C104.051 220.048 104.219 220.11 104.332 220.235C104.449 220.36 104.508 220.517 104.508 220.704C104.508 220.884 104.449 221.034 104.332 221.155C104.219 221.276 104.051 221.337 103.828 221.337C103.605 221.337 103.437 221.276 103.324 221.155C103.215 221.034 103.16 220.884 103.16 220.704ZM107.56 221.653H108.375C108.887 221.645 109.289 221.511 109.582 221.249C109.875 220.987 110.021 220.634 110.021 220.188C110.021 219.188 109.523 218.688 108.527 218.688C108.059 218.688 107.684 218.823 107.402 219.093C107.125 219.358 106.986 219.712 106.986 220.153H105.902C105.902 219.477 106.148 218.917 106.641 218.472C107.137 218.022 107.766 217.798 108.527 217.798C109.332 217.798 109.963 218.011 110.42 218.436C110.877 218.862 111.105 219.454 111.105 220.212C111.105 220.583 110.984 220.942 110.742 221.29C110.504 221.638 110.178 221.897 109.764 222.069C110.232 222.218 110.594 222.464 110.848 222.808C111.105 223.151 111.234 223.571 111.234 224.067C111.234 224.833 110.984 225.44 110.484 225.89C109.984 226.339 109.334 226.563 108.533 226.563C107.732 226.563 107.08 226.347 106.576 225.913C106.076 225.479 105.826 224.907 105.826 224.196H106.916C106.916 224.645 107.062 225.005 107.355 225.274C107.648 225.544 108.041 225.679 108.533 225.679C109.057 225.679 109.457 225.542 109.734 225.268C110.012 224.995 110.15 224.602 110.15 224.091C110.15 223.595 109.998 223.214 109.693 222.948C109.389 222.683 108.949 222.546 108.375 222.538H107.56V221.653ZM118.072 222.808C118.072 224.077 117.855 225.02 117.422 225.638C116.988 226.255 116.31 226.563 115.389 226.563C114.478 226.563 113.805 226.263 113.367 225.661C112.93 225.056 112.703 224.153 112.687 222.954V221.507C112.687 220.253 112.904 219.321 113.338 218.712C113.771 218.102 114.451 217.798 115.377 217.798C116.295 217.798 116.971 218.093 117.404 218.683C117.838 219.268 118.06 220.175 118.072 221.401V222.808ZM116.988 221.325C116.988 220.407 116.859 219.739 116.601 219.321C116.344 218.899 115.935 218.688 115.377 218.688C114.822 218.688 114.418 218.897 114.164 219.315C113.91 219.733 113.779 220.376 113.771 221.243V222.977C113.771 223.899 113.904 224.581 114.17 225.022C114.439 225.46 114.846 225.679 115.389 225.679C115.924 225.679 116.32 225.472 116.578 225.058C116.84 224.643 116.976 223.991 116.988 223.101V221.325Z" fill="white" fill-opacity="0.45"/>
<g opacity="0.45">
<line x1="123.019" y1="220" x2="123.019" y2="226.3" stroke="white" stroke-width="0.5"/>
<line x1="122.769" y1="219.75" x2="127.131" y2="219.75" stroke="white" stroke-width="0.5"/>
<line x1="122.769" y1="226.05" x2="127.131" y2="226.05" stroke="white" stroke-width="0.5"/>
<line x1="130.288" y1="217.092" x2="130.288" y2="228.723" stroke="white" stroke-width="0.5"/>
<line x1="126.968" y1="219.81" x2="130.36" y2="216.903" stroke="white" stroke-width="0.5"/>
<line x1="126.791" y1="226.097" x2="130.184" y2="228.52" stroke="white" stroke-width="0.5"/>
<line x1="125.192" y1="219.75" x2="127.615" y2="219.75" stroke="white" stroke-width="0.5"/>
<line x1="124.708" y1="226.05" x2="127.615" y2="226.05" stroke="white" stroke-width="0.5"/>
<path d="M131.492 219.515L133.431 220.969L134.158 222.665L133.431 224.604L131.492 226.542" stroke="white" stroke-width="0.5"/>
<path d="M131.492 217.092L134.642 220L135.612 222.908L134.642 225.573L131.492 228.723" stroke="white" stroke-width="0.5"/>
</g>
<circle cx="241.985" cy="133.738" r="56.2154" fill="#FFEF62"/>
<rect x="84" y="255" width="315" height="206.446" rx="12.5" fill="#ED4040" stroke="black" stroke-width="0.5" stroke-miterlimit="2.61313"/>
<path d="M375.061 446.894V448.154H369.613V446.894H375.061ZM369.613 450.158V448.862H375.061V450.158H369.613ZM368.725 451.37H369.613V450.926H375.061V451.334H375.997V446.126H368.725V451.37ZM374.509 444.278C374.809 443.798 375.133 443.114 375.445 442.49L374.629 442.298H377.005V441.494H372.709V440.402H371.797V441.494H367.657V442.298H374.461C374.281 442.85 373.921 443.63 373.645 444.134L374.185 444.278H370.309L370.921 444.122C370.813 443.618 370.513 442.862 370.153 442.31L369.301 442.49C369.613 443.03 369.913 443.762 370.009 444.278H366.973V445.094H377.593V444.278H374.509ZM383.833 445.814V447.65H380.977C381.013 447.302 381.025 446.954 381.025 446.642V445.814H383.833ZM387.745 447.65H384.697V445.814H387.745V447.65ZM388.633 445.058H380.149V446.642C380.149 447.89 379.957 449.582 378.673 450.818C378.865 450.938 379.225 451.25 379.345 451.43C380.233 450.578 380.653 449.486 380.869 448.43H387.745V449.03H388.633V445.058ZM389.389 442.178V441.398H384.709V440.378H383.821V441.398H379.165V442.178H383.821V443.354H379.873V444.122H388.873V443.354H384.709V442.178H389.389Z" fill="white" fill-opacity="0.45"/>
<path d="M101.689 446.808C101.689 448.077 101.473 449.02 101.039 449.638C100.605 450.255 99.9276 450.563 99.0058 450.563C98.0956 450.563 97.4218 450.263 96.9843 449.661C96.5468 449.056 96.3202 448.153 96.3046 446.954V445.507C96.3046 444.253 96.5214 443.321 96.955 442.712C97.3886 442.102 98.0683 441.798 98.994 441.798C99.912 441.798 100.588 442.093 101.021 442.683C101.455 443.268 101.678 444.175 101.689 445.401V446.808ZM100.605 445.325C100.605 444.407 100.476 443.739 100.219 443.321C99.9608 442.899 99.5526 442.688 98.994 442.688C98.4394 442.688 98.0351 442.897 97.7812 443.315C97.5273 443.733 97.3964 444.376 97.3886 445.243V446.977C97.3886 447.899 97.5214 448.581 97.787 449.022C98.0565 449.46 98.4628 449.679 99.0058 449.679C99.5409 449.679 99.9374 449.472 100.195 449.058C100.457 448.643 100.594 447.991 100.605 447.101V445.325ZM103.154 449.878C103.154 449.69 103.209 449.534 103.318 449.409C103.432 449.284 103.6 449.222 103.822 449.222C104.045 449.222 104.213 449.284 104.326 449.409C104.443 449.534 104.502 449.69 104.502 449.878C104.502 450.058 104.443 450.208 104.326 450.329C104.213 450.45 104.045 450.511 103.822 450.511C103.6 450.511 103.432 450.45 103.318 450.329C103.209 450.208 103.154 450.058 103.154 449.878ZM103.16 444.704C103.16 444.517 103.215 444.36 103.324 444.235C103.437 444.11 103.605 444.048 103.828 444.048C104.051 444.048 104.219 444.11 104.332 444.235C104.449 444.36 104.508 444.517 104.508 444.704C104.508 444.884 104.449 445.034 104.332 445.155C104.219 445.276 104.051 445.337 103.828 445.337C103.605 445.337 103.437 445.276 103.324 445.155C103.215 445.034 103.16 444.884 103.16 444.704ZM107.56 445.653H108.375C108.887 445.645 109.289 445.511 109.582 445.249C109.875 444.987 110.021 444.634 110.021 444.188C110.021 443.188 109.523 442.688 108.527 442.688C108.059 442.688 107.684 442.823 107.402 443.093C107.125 443.358 106.986 443.712 106.986 444.153H105.902C105.902 443.477 106.148 442.917 106.641 442.472C107.137 442.022 107.766 441.798 108.527 441.798C109.332 441.798 109.963 442.011 110.42 442.436C110.877 442.862 111.105 443.454 111.105 444.212C111.105 444.583 110.984 444.942 110.742 445.29C110.504 445.638 110.178 445.897 109.764 446.069C110.232 446.218 110.594 446.464 110.848 446.808C111.105 447.151 111.234 447.571 111.234 448.067C111.234 448.833 110.984 449.44 110.484 449.89C109.984 450.339 109.334 450.563 108.533 450.563C107.732 450.563 107.08 450.347 106.576 449.913C106.076 449.479 105.826 448.907 105.826 448.196H106.916C106.916 448.645 107.062 449.005 107.355 449.274C107.648 449.544 108.041 449.679 108.533 449.679C109.057 449.679 109.457 449.542 109.734 449.268C110.012 448.995 110.15 448.602 110.15 448.091C110.15 447.595 109.998 447.214 109.693 446.948C109.389 446.683 108.949 446.546 108.375 446.538H107.56V445.653ZM118.072 446.808C118.072 448.077 117.855 449.02 117.422 449.638C116.988 450.255 116.31 450.563 115.389 450.563C114.478 450.563 113.805 450.263 113.367 449.661C112.93 449.056 112.703 448.153 112.687 446.954V445.507C112.687 444.253 112.904 443.321 113.338 442.712C113.771 442.102 114.451 441.798 115.377 441.798C116.295 441.798 116.971 442.093 117.404 442.683C117.838 443.268 118.06 444.175 118.072 445.401V446.808ZM116.988 445.325C116.988 444.407 116.859 443.739 116.601 443.321C116.344 442.899 115.935 442.688 115.377 442.688C114.822 442.688 114.418 442.897 114.164 443.315C113.91 443.733 113.779 444.376 113.771 445.243V446.977C113.771 447.899 113.904 448.581 114.17 449.022C114.439 449.46 114.846 449.679 115.389 449.679C115.924 449.679 116.32 449.472 116.578 449.058C116.84 448.643 116.976 447.991 116.988 447.101V445.325Z" fill="white" fill-opacity="0.45"/>
<g opacity="0.45">
<line x1="123.019" y1="444" x2="123.019" y2="450.3" stroke="white" stroke-width="0.5"/>
<line x1="122.769" y1="443.75" x2="127.131" y2="443.75" stroke="white" stroke-width="0.5"/>
<line x1="122.769" y1="450.05" x2="127.131" y2="450.05" stroke="white" stroke-width="0.5"/>
<line x1="130.288" y1="441.092" x2="130.288" y2="452.723" stroke="white" stroke-width="0.5"/>
<line x1="126.968" y1="443.81" x2="130.36" y2="440.903" stroke="white" stroke-width="0.5"/>
<line x1="126.791" y1="450.097" x2="130.184" y2="452.52" stroke="white" stroke-width="0.5"/>
<line x1="125.192" y1="443.75" x2="127.615" y2="443.75" stroke="white" stroke-width="0.5"/>
<line x1="124.708" y1="450.05" x2="127.615" y2="450.05" stroke="white" stroke-width="0.5"/>
<path d="M131.492 443.515L133.431 444.969L134.158 446.665L133.431 448.604L131.492 450.542" stroke="white" stroke-width="0.5"/>
<path d="M131.492 441.092L134.642 444L135.612 446.908L134.642 449.573L131.492 452.723" stroke="white" stroke-width="0.5"/>
</g>
<circle cx="241.985" cy="357.738" r="56.2154" fill="#FFEF62"/>
<rect x="84" y="479" width="315" height="206.446" rx="12.5" fill="#ED4040" stroke="black" stroke-width="0.5" stroke-miterlimit="2.61313"/>
<path d="M375.061 670.894V672.154H369.613V670.894H375.061ZM369.613 674.158V672.862H375.061V674.158H369.613ZM368.725 675.37H369.613V674.926H375.061V675.334H375.997V670.126H368.725V675.37ZM374.509 668.278C374.809 667.798 375.133 667.114 375.445 666.49L374.629 666.298H377.005V665.494H372.709V664.402H371.797V665.494H367.657V666.298H374.461C374.281 666.85 373.921 667.63 373.645 668.134L374.185 668.278H370.309L370.921 668.122C370.813 667.618 370.513 666.862 370.153 666.31L369.301 666.49C369.613 667.03 369.913 667.762 370.009 668.278H366.973V669.094H377.593V668.278H374.509ZM383.833 669.814V671.65H380.977C381.013 671.302 381.025 670.954 381.025 670.642V669.814H383.833ZM387.745 671.65H384.697V669.814H387.745V671.65ZM388.633 669.058H380.149V670.642C380.149 671.89 379.957 673.582 378.673 674.818C378.865 674.938 379.225 675.25 379.345 675.43C380.233 674.578 380.653 673.486 380.869 672.43H387.745V673.03H388.633V669.058ZM389.389 666.178V665.398H384.709V664.378H383.821V665.398H379.165V666.178H383.821V667.354H379.873V668.122H388.873V667.354H384.709V666.178H389.389Z" fill="white" fill-opacity="0.45"/>
<path d="M101.689 670.808C101.689 672.077 101.473 673.02 101.039 673.638C100.605 674.255 99.9276 674.563 99.0058 674.563C98.0956 674.563 97.4218 674.263 96.9843 673.661C96.5468 673.056 96.3202 672.153 96.3046 670.954V669.507C96.3046 668.253 96.5214 667.321 96.955 666.712C97.3886 666.102 98.0683 665.798 98.994 665.798C99.912 665.798 100.588 666.093 101.021 666.683C101.455 667.268 101.678 668.175 101.689 669.401V670.808ZM100.605 669.325C100.605 668.407 100.476 667.739 100.219 667.321C99.9608 666.899 99.5526 666.688 98.994 666.688C98.4394 666.688 98.0351 666.897 97.7812 667.315C97.5273 667.733 97.3964 668.376 97.3886 669.243V670.977C97.3886 671.899 97.5214 672.581 97.787 673.022C98.0565 673.46 98.4628 673.679 99.0058 673.679C99.5409 673.679 99.9374 673.472 100.195 673.058C100.457 672.643 100.594 671.991 100.605 671.101V669.325ZM103.154 673.878C103.154 673.69 103.209 673.534 103.318 673.409C103.432 673.284 103.6 673.222 103.822 673.222C104.045 673.222 104.213 673.284 104.326 673.409C104.443 673.534 104.502 673.69 104.502 673.878C104.502 674.058 104.443 674.208 104.326 674.329C104.213 674.45 104.045 674.511 103.822 674.511C103.6 674.511 103.432 674.45 103.318 674.329C103.209 674.208 103.154 674.058 103.154 673.878ZM103.16 668.704C103.16 668.517 103.215 668.36 103.324 668.235C103.437 668.11 103.605 668.048 103.828 668.048C104.051 668.048 104.219 668.11 104.332 668.235C104.449 668.36 104.508 668.517 104.508 668.704C104.508 668.884 104.449 669.034 104.332 669.155C104.219 669.276 104.051 669.337 103.828 669.337C103.605 669.337 103.437 669.276 103.324 669.155C103.215 669.034 103.16 668.884 103.16 668.704ZM107.56 669.653H108.375C108.887 669.645 109.289 669.511 109.582 669.249C109.875 668.987 110.021 668.634 110.021 668.188C110.021 667.188 109.523 666.688 108.527 666.688C108.059 666.688 107.684 666.823 107.402 667.093C107.125 667.358 106.986 667.712 106.986 668.153H105.902C105.902 667.477 106.148 666.917 106.641 666.472C107.137 666.022 107.766 665.798 108.527 665.798C109.332 665.798 109.963 666.011 110.42 666.436C110.877 666.862 111.105 667.454 111.105 668.212C111.105 668.583 110.984 668.942 110.742 669.29C110.504 669.638 110.178 669.897 109.764 670.069C110.232 670.218 110.594 670.464 110.848 670.808C111.105 671.151 111.234 671.571 111.234 672.067C111.234 672.833 110.984 673.44 110.484 673.89C109.984 674.339 109.334 674.563 108.533 674.563C107.732 674.563 107.08 674.347 106.576 673.913C106.076 673.479 105.826 672.907 105.826 672.196H106.916C106.916 672.645 107.062 673.005 107.355 673.274C107.648 673.544 108.041 673.679 108.533 673.679C109.057 673.679 109.457 673.542 109.734 673.268C110.012 672.995 110.15 672.602 110.15 672.091C110.15 671.595 109.998 671.214 109.693 670.948C109.389 670.683 108.949 670.546 108.375 670.538H107.56V669.653ZM118.072 670.808C118.072 672.077 117.855 673.02 117.422 673.638C116.988 674.255 116.31 674.563 115.389 674.563C114.478 674.563 113.805 674.263 113.367 673.661C112.93 673.056 112.703 672.153 112.687 670.954V669.507C112.687 668.253 112.904 667.321 113.338 666.712C113.771 666.102 114.451 665.798 115.377 665.798C116.295 665.798 116.971 666.093 117.404 666.683C117.838 667.268 118.06 668.175 118.072 669.401V670.808ZM116.988 669.325C116.988 668.407 116.859 667.739 116.601 667.321C116.344 666.899 115.935 666.688 115.377 666.688C114.822 666.688 114.418 666.897 114.164 667.315C113.91 667.733 113.779 668.376 113.771 669.243V670.977C113.771 671.899 113.904 672.581 114.17 673.022C114.439 673.46 114.846 673.679 115.389 673.679C115.924 673.679 116.32 673.472 116.578 673.058C116.84 672.643 116.976 671.991 116.988 671.101V669.325Z" fill="white" fill-opacity="0.45"/>
<g opacity="0.45">
<line x1="123.019" y1="668" x2="123.019" y2="674.3" stroke="white" stroke-width="0.5"/>
<line x1="122.769" y1="667.75" x2="127.131" y2="667.75" stroke="white" stroke-width="0.5"/>
<line x1="122.769" y1="674.05" x2="127.131" y2="674.05" stroke="white" stroke-width="0.5"/>
<line x1="130.288" y1="665.092" x2="130.288" y2="676.723" stroke="white" stroke-width="0.5"/>
<line x1="126.968" y1="667.81" x2="130.36" y2="664.903" stroke="white" stroke-width="0.5"/>
<line x1="126.791" y1="674.097" x2="130.184" y2="676.52" stroke="white" stroke-width="0.5"/>
<line x1="125.192" y1="667.75" x2="127.615" y2="667.75" stroke="white" stroke-width="0.5"/>
<line x1="124.708" y1="674.05" x2="127.615" y2="674.05" stroke="white" stroke-width="0.5"/>
<path d="M131.492 667.515L133.431 668.969L134.158 670.665L133.431 672.604L131.492 674.542" stroke="white" stroke-width="0.5"/>
<path d="M131.492 665.092L134.642 668L135.612 670.908L134.642 673.573L131.492 676.723" stroke="white" stroke-width="0.5"/>
</g>
<circle cx="241.985" cy="581.738" r="56.2154" fill="#FFEF62"/>
</svg>
