<svg width="483" height="831" viewBox="0 0 483 831" fill="none" xmlns="http://www.w3.org/2000/svg">
<rect width="483" height="831" fill="white"/>
<rect x="45" y="176" width="393.662" height="258" rx="12.5" fill="#ED4040" stroke="black" stroke-width="0.5" stroke-miterlimit="2.61313"/>
<path d="M412.545 417.716V418.976H407.097V417.716H412.545ZM407.097 420.98V419.684H412.545V420.98H407.097ZM406.209 422.192H407.097V421.748H412.545V422.156H413.481V416.948H406.209V422.192ZM411.993 415.1C412.293 414.62 412.617 413.936 412.929 413.312L412.113 413.12H414.489V412.316H410.193V411.224H409.281V412.316H405.141V413.12H411.945C411.765 413.672 411.405 414.452 411.129 414.956L411.669 415.1H407.793L408.405 414.944C408.297 414.44 407.997 413.684 407.637 413.132L406.785 413.312C407.097 413.852 407.397 414.584 407.493 415.1H404.457V415.916H415.077V415.1H411.993ZM421.317 416.636V418.472H418.461C418.497 418.124 418.509 417.776 418.509 417.464V416.636H421.317ZM425.229 418.472H422.181V416.636H425.229V418.472ZM426.117 415.88H417.633V417.464C417.633 418.712 417.441 420.404 416.157 421.64C416.349 421.76 416.709 422.072 416.829 422.252C417.717 421.4 418.137 420.308 418.353 419.252H425.229V419.852H426.117V415.88ZM426.873 413V412.22H422.193V411.2H421.305V412.22H416.649V413H421.305V414.176H417.357V414.944H426.357V414.176H422.193V413H426.873Z" fill="white" fill-opacity="0.45"/>
<path d="M65.5938 417.629C65.5938 418.898 65.377 419.842 64.9434 420.459C64.5098 421.076 63.832 421.385 62.9102 421.385C62 421.385 61.3262 421.084 60.8887 420.482C60.4512 419.877 60.2246 418.975 60.209 417.775V416.328C60.209 415.074 60.4258 414.143 60.8594 413.533C61.293 412.924 61.9727 412.619 62.8984 412.619C63.8164 412.619 64.4922 412.914 64.9258 413.504C65.3594 414.09 65.582 414.996 65.5938 416.223V417.629ZM64.5098 416.147C64.5098 415.229 64.3809 414.561 64.123 414.143C63.8652 413.721 63.457 413.51 62.8984 413.51C62.3438 413.51 61.9395 413.719 61.6855 414.137C61.4316 414.555 61.3008 415.197 61.293 416.064V417.799C61.293 418.721 61.4258 419.402 61.6914 419.844C61.9609 420.281 62.3672 420.5 62.9102 420.5C63.4453 420.5 63.8418 420.293 64.0996 419.879C64.3613 419.465 64.498 418.813 64.5098 417.922V416.147ZM67.0586 420.699C67.0586 420.512 67.1133 420.355 67.2227 420.23C67.3359 420.105 67.5039 420.043 67.7266 420.043C67.9492 420.043 68.1172 420.105 68.2305 420.23C68.3477 420.355 68.4062 420.512 68.4062 420.699C68.4062 420.879 68.3477 421.029 68.2305 421.15C68.1172 421.272 67.9492 421.332 67.7266 421.332C67.5039 421.332 67.3359 421.272 67.2227 421.15C67.1133 421.029 67.0586 420.879 67.0586 420.699ZM67.0645 415.525C67.0645 415.338 67.1191 415.182 67.2285 415.057C67.3418 414.932 67.5098 414.869 67.7324 414.869C67.9551 414.869 68.123 414.932 68.2363 415.057C68.3535 415.182 68.4121 415.338 68.4121 415.525C68.4121 415.705 68.3535 415.855 68.2363 415.977C68.123 416.098 67.9551 416.158 67.7324 416.158C67.5098 416.158 67.3418 416.098 67.2285 415.977C67.1191 415.855 67.0645 415.705 67.0645 415.525ZM71.4648 416.475H72.2793C72.791 416.467 73.1934 416.332 73.4863 416.07C73.7793 415.809 73.9258 415.455 73.9258 415.01C73.9258 414.01 73.4277 413.51 72.4316 413.51C71.9629 413.51 71.5879 413.645 71.3066 413.914C71.0293 414.18 70.8906 414.533 70.8906 414.975H69.8066C69.8066 414.299 70.0527 413.738 70.5449 413.293C71.041 412.844 71.6699 412.619 72.4316 412.619C73.2363 412.619 73.8672 412.832 74.3242 413.258C74.7812 413.684 75.0098 414.275 75.0098 415.033C75.0098 415.404 74.8887 415.764 74.6465 416.111C74.4082 416.459 74.082 416.719 73.668 416.891C74.1367 417.039 74.498 417.285 74.752 417.629C75.0098 417.973 75.1387 418.393 75.1387 418.889C75.1387 419.654 74.8887 420.262 74.3887 420.711C73.8887 421.16 73.2383 421.385 72.4375 421.385C71.6367 421.385 70.9844 421.168 70.4805 420.734C69.9805 420.301 69.7305 419.729 69.7305 419.018H70.8203C70.8203 419.467 70.9668 419.826 71.2598 420.096C71.5527 420.365 71.9453 420.5 72.4375 420.5C72.9609 420.5 73.3613 420.363 73.6387 420.09C73.916 419.816 74.0547 419.424 74.0547 418.912C74.0547 418.416 73.9023 418.035 73.5977 417.77C73.293 417.504 72.8535 417.367 72.2793 417.359H71.4648V416.475ZM81.9766 417.629C81.9766 418.898 81.7598 419.842 81.3262 420.459C80.8926 421.076 80.2148 421.385 79.293 421.385C78.3828 421.385 77.709 421.084 77.2715 420.482C76.834 419.877 76.6074 418.975 76.5918 417.775V416.328C76.5918 415.074 76.8086 414.143 77.2422 413.533C77.6758 412.924 78.3555 412.619 79.2812 412.619C80.1992 412.619 80.875 412.914 81.3086 413.504C81.7422 414.09 81.9648 414.996 81.9766 416.223V417.629ZM80.8926 416.147C80.8926 415.229 80.7637 414.561 80.5059 414.143C80.248 413.721 79.8398 413.51 79.2812 413.51C78.7266 413.51 78.3223 413.719 78.0684 414.137C77.8145 414.555 77.6836 415.197 77.6758 416.064V417.799C77.6758 418.721 77.8086 419.402 78.0742 419.844C78.3438 420.281 78.75 420.5 79.293 420.5C79.8281 420.5 80.2246 420.293 80.4824 419.879C80.7441 419.465 80.8809 418.813 80.8926 417.922V416.147Z" fill="white" fill-opacity="0.45"/>
<g opacity="0.45">
<line x1="93.7007" y1="412.197" x2="93.7007" y2="420.07" stroke="white" stroke-width="0.5"/>
<line x1="93.4507" y1="411.947" x2="98.9014" y2="411.947" stroke="white" stroke-width="0.5"/>
<line x1="93.4507" y1="419.82" x2="98.9014" y2="419.82" stroke="white" stroke-width="0.5"/>
<line x1="102.785" y1="408.563" x2="102.785" y2="423.099" stroke="white" stroke-width="0.5"/>
<line x1="98.7387" y1="412.007" x2="102.978" y2="408.374" stroke="white" stroke-width="0.5"/>
<line x1="98.4411" y1="419.867" x2="102.681" y2="422.895" stroke="white" stroke-width="0.5"/>
<line x1="96.4789" y1="411.947" x2="99.507" y2="411.947" stroke="white" stroke-width="0.5"/>
<line x1="95.8733" y1="419.82" x2="99.5071" y2="419.82" stroke="white" stroke-width="0.5"/>
<path d="M104.352 411.592L106.775 413.408L107.683 415.528L106.775 417.951L104.352 420.373" stroke="white" stroke-width="0.5"/>
<path d="M104.352 408.563L108.289 412.197L109.5 415.831L108.289 419.162L104.352 423.099" stroke="white" stroke-width="0.5"/>
</g>
<circle cx="242.437" cy="304.394" r="70.2535" fill="#FFEF62"/>
<rect x="74.5" y="733.5" width="334" height="67" rx="9.5" fill="white" stroke="black"/>
<path d="M209.672 774V756.938H214.488C215.973 756.938 217.285 757.266 218.426 757.922C219.566 758.578 220.445 759.512 221.062 760.723C221.688 761.934 222.004 763.324 222.012 764.895V765.984C222.012 767.594 221.699 769.004 221.074 770.215C220.457 771.426 219.57 772.355 218.414 773.004C217.266 773.652 215.926 773.984 214.395 774H209.672ZM211.922 758.789V772.16H214.289C216.023 772.16 217.371 771.621 218.332 770.543C219.301 769.465 219.785 767.93 219.785 765.938V764.941C219.785 763.004 219.328 761.5 218.414 760.43C217.508 759.352 216.219 758.805 214.547 758.789H211.922ZM230.344 774.234C228.625 774.234 227.227 773.672 226.148 772.547C225.07 771.414 224.531 769.902 224.531 768.012V767.613C224.531 766.355 224.77 765.234 225.246 764.25C225.73 763.258 226.402 762.484 227.262 761.93C228.129 761.367 229.066 761.086 230.074 761.086C231.723 761.086 233.004 761.629 233.918 762.715C234.832 763.801 235.289 765.355 235.289 767.379V768.281H226.699C226.73 769.531 227.094 770.543 227.789 771.316C228.492 772.082 229.383 772.465 230.461 772.465C231.227 772.465 231.875 772.309 232.406 771.996C232.938 771.684 233.402 771.27 233.801 770.754L235.125 771.785C234.062 773.418 232.469 774.234 230.344 774.234ZM230.074 762.867C229.199 762.867 228.465 763.188 227.871 763.828C227.277 764.461 226.91 765.352 226.77 766.5H233.121V766.336C233.059 765.234 232.762 764.383 232.23 763.781C231.699 763.172 230.98 762.867 230.074 762.867ZM240.164 774H237.996V756H240.164V774ZM248.906 774.234C247.188 774.234 245.789 773.672 244.711 772.547C243.633 771.414 243.094 769.902 243.094 768.012V767.613C243.094 766.355 243.332 765.234 243.809 764.25C244.293 763.258 244.965 762.484 245.824 761.93C246.691 761.367 247.629 761.086 248.637 761.086C250.285 761.086 251.566 761.629 252.48 762.715C253.395 763.801 253.852 765.355 253.852 767.379V768.281H245.262C245.293 769.531 245.656 770.543 246.352 771.316C247.055 772.082 247.945 772.465 249.023 772.465C249.789 772.465 250.438 772.309 250.969 771.996C251.5 771.684 251.965 771.27 252.363 770.754L253.688 771.785C252.625 773.418 251.031 774.234 248.906 774.234ZM248.637 762.867C247.762 762.867 247.027 763.188 246.434 763.828C245.84 764.461 245.473 765.352 245.332 766.5H251.684V766.336C251.621 765.234 251.324 764.383 250.793 763.781C250.262 763.172 249.543 762.867 248.637 762.867ZM259.312 758.25V761.32H261.68V762.996H259.312V770.859C259.312 771.367 259.418 771.75 259.629 772.008C259.84 772.258 260.199 772.383 260.707 772.383C260.957 772.383 261.301 772.336 261.738 772.242V774C261.168 774.156 260.613 774.234 260.074 774.234C259.105 774.234 258.375 773.941 257.883 773.355C257.391 772.77 257.145 771.938 257.145 770.859V762.996H254.836V761.32H257.145V758.25H259.312ZM269.484 774.234C267.766 774.234 266.367 773.672 265.289 772.547C264.211 771.414 263.672 769.902 263.672 768.012V767.613C263.672 766.355 263.91 765.234 264.387 764.25C264.871 763.258 265.543 762.484 266.402 761.93C267.27 761.367 268.207 761.086 269.215 761.086C270.863 761.086 272.145 761.629 273.059 762.715C273.973 763.801 274.43 765.355 274.43 767.379V768.281H265.84C265.871 769.531 266.234 770.543 266.93 771.316C267.633 772.082 268.523 772.465 269.602 772.465C270.367 772.465 271.016 772.309 271.547 771.996C272.078 771.684 272.543 771.27 272.941 770.754L274.266 771.785C273.203 773.418 271.609 774.234 269.484 774.234ZM269.215 762.867C268.34 762.867 267.605 763.188 267.012 763.828C266.418 764.461 266.051 765.352 265.91 766.5H272.262V766.336C272.199 765.234 271.902 764.383 271.371 763.781C270.84 763.172 270.121 762.867 269.215 762.867Z" fill="black"/>
<rect x="74.5" y="646.5" width="334" height="67" rx="9.5" fill="white" stroke="black"/>
<path d="M190.055 687V669.938H194.871C196.355 669.938 197.668 670.266 198.809 670.922C199.949 671.578 200.828 672.512 201.445 673.723C202.07 674.934 202.387 676.324 202.395 677.895V678.984C202.395 680.594 202.082 682.004 201.457 683.215C200.84 684.426 199.953 685.355 198.797 686.004C197.648 686.652 196.309 686.984 194.777 687H190.055ZM192.305 671.789V685.16H194.672C196.406 685.16 197.754 684.621 198.715 683.543C199.684 682.465 200.168 680.93 200.168 678.938V677.941C200.168 676.004 199.711 674.5 198.797 673.43C197.891 672.352 196.602 671.805 194.93 671.789H192.305ZM204.891 680.543C204.891 679.301 205.133 678.184 205.617 677.191C206.109 676.199 206.789 675.434 207.656 674.895C208.531 674.355 209.527 674.086 210.645 674.086C212.371 674.086 213.766 674.684 214.828 675.879C215.898 677.074 216.434 678.664 216.434 680.648V680.801C216.434 682.035 216.195 683.145 215.719 684.129C215.25 685.105 214.574 685.867 213.691 686.414C212.816 686.961 211.809 687.234 210.668 687.234C208.949 687.234 207.555 686.637 206.484 685.441C205.422 684.246 204.891 682.664 204.891 680.695V680.543ZM207.07 680.801C207.07 682.207 207.395 683.336 208.043 684.188C208.699 685.039 209.574 685.465 210.668 685.465C211.77 685.465 212.645 685.035 213.293 684.176C213.941 683.309 214.266 682.098 214.266 680.543C214.266 679.152 213.934 678.027 213.27 677.168C212.613 676.301 211.738 675.867 210.645 675.867C209.574 675.867 208.711 676.293 208.055 677.145C207.398 677.996 207.07 679.215 207.07 680.801ZM230.379 684.012L232.816 674.32H234.984L231.293 687H229.535L226.453 677.391L223.453 687H221.695L218.016 674.32H220.172L222.668 683.812L225.621 674.32H227.367L230.379 684.012ZM239.25 674.32L239.32 675.914C240.289 674.695 241.555 674.086 243.117 674.086C245.797 674.086 247.148 675.598 247.172 678.621V687H245.004V678.609C244.996 677.695 244.785 677.02 244.371 676.582C243.965 676.145 243.328 675.926 242.461 675.926C241.758 675.926 241.141 676.113 240.609 676.488C240.078 676.863 239.664 677.355 239.367 677.965V687H237.199V674.32H239.25ZM252.797 687H250.629V669H252.797V687ZM255.703 680.543C255.703 679.301 255.945 678.184 256.43 677.191C256.922 676.199 257.602 675.434 258.469 674.895C259.344 674.355 260.34 674.086 261.457 674.086C263.184 674.086 264.578 674.684 265.641 675.879C266.711 677.074 267.246 678.664 267.246 680.648V680.801C267.246 682.035 267.008 683.145 266.531 684.129C266.062 685.105 265.387 685.867 264.504 686.414C263.629 686.961 262.621 687.234 261.48 687.234C259.762 687.234 258.367 686.637 257.297 685.441C256.234 684.246 255.703 682.664 255.703 680.695V680.543ZM257.883 680.801C257.883 682.207 258.207 683.336 258.855 684.188C259.512 685.039 260.387 685.465 261.48 685.465C262.582 685.465 263.457 685.035 264.105 684.176C264.754 683.309 265.078 682.098 265.078 680.543C265.078 679.152 264.746 678.027 264.082 677.168C263.426 676.301 262.551 675.867 261.457 675.867C260.387 675.867 259.523 676.293 258.867 677.145C258.211 677.996 257.883 679.215 257.883 680.801ZM277.793 687C277.668 686.75 277.566 686.305 277.488 685.664C276.48 686.711 275.277 687.234 273.879 687.234C272.629 687.234 271.602 686.883 270.797 686.18C270 685.469 269.602 684.57 269.602 683.484C269.602 682.164 270.102 681.141 271.102 680.414C272.109 679.68 273.523 679.312 275.344 679.312H277.453V678.316C277.453 677.559 277.227 676.957 276.773 676.512C276.32 676.059 275.652 675.832 274.77 675.832C273.996 675.832 273.348 676.027 272.824 676.418C272.301 676.809 272.039 677.281 272.039 677.836H269.859C269.859 677.203 270.082 676.594 270.527 676.008C270.98 675.414 271.59 674.945 272.355 674.602C273.129 674.258 273.977 674.086 274.898 674.086C276.359 674.086 277.504 674.453 278.332 675.188C279.16 675.914 279.59 676.918 279.621 678.199V684.035C279.621 685.199 279.77 686.125 280.066 686.812V687H277.793ZM274.195 685.348C274.875 685.348 275.52 685.172 276.129 684.82C276.738 684.469 277.18 684.012 277.453 683.449V680.848H275.754C273.098 680.848 271.77 681.625 271.77 683.18C271.77 683.859 271.996 684.391 272.449 684.773C272.902 685.156 273.484 685.348 274.195 685.348ZM282.492 680.555C282.492 678.609 282.953 677.047 283.875 675.867C284.797 674.68 286.004 674.086 287.496 674.086C288.98 674.086 290.156 674.594 291.023 675.609V669H293.191V687H291.199L291.094 685.641C290.227 686.703 289.02 687.234 287.473 687.234C286.004 687.234 284.805 686.633 283.875 685.43C282.953 684.227 282.492 682.656 282.492 680.719V680.555ZM284.66 680.801C284.66 682.238 284.957 683.363 285.551 684.176C286.145 684.988 286.965 685.395 288.012 685.395C289.387 685.395 290.391 684.777 291.023 683.543V677.719C290.375 676.523 289.379 675.926 288.035 675.926C286.973 675.926 286.145 676.336 285.551 677.156C284.957 677.977 284.66 679.191 284.66 680.801Z" fill="black"/>
</svg>
