<svg width="483" height="831" viewBox="0 0 483 831" fill="none" xmlns="http://www.w3.org/2000/svg">
<rect width="483" height="831" fill="white"/>
<circle cx="403" cy="768" r="39" stroke="black" stroke-width="2"/>
<rect x="387.75" y="747.75" width="9.5" height="41.5" stroke="black" stroke-width="1.5"/>
<rect x="408.75" y="747.75" width="9.5" height="41.5" stroke="black" stroke-width="1.5"/>
<circle cx="81" cy="768" r="39" stroke="black" stroke-width="2"/>
<path d="M77.8837 796.912C26.1076 776.046 64.0304 739.803 81.6323 739.803C91.509 739.803 131.477 750.191 99.23 790.108" stroke="black" stroke-width="2"/>
<path d="M80.5491 798.738C81.0569 798.52 81.2924 797.933 81.0749 797.425L77.5312 789.157C77.3137 788.649 76.7257 788.414 76.2179 788.632C75.71 788.85 75.4746 789.437 75.6921 789.945L78.8421 797.295L71.4857 800.447C70.9778 800.665 70.7424 801.253 70.9599 801.76C71.1773 802.268 71.7653 802.503 72.2732 802.285L80.5491 798.738ZM75.241 796.933L79.7836 798.748L80.5271 796.891L75.9846 795.076L75.241 796.933Z" fill="black"/>
<circle cx="242" cy="768" r="39" stroke="black" stroke-width="2"/>
<rect x="222" y="748" width="39" height="39" stroke="black" stroke-width="2"/>
<path d="M139.625 92.168C139.625 99.7852 138.324 105.445 135.723 109.148C133.121 112.852 129.055 114.703 123.523 114.703C118.062 114.703 114.02 112.898 111.395 109.289C108.77 105.656 107.41 100.242 107.316 93.0469V84.3633C107.316 76.8398 108.617 71.25 111.219 67.5938C113.82 63.9375 117.898 62.1094 123.453 62.1094C128.961 62.1094 133.016 63.8789 135.617 67.418C138.219 70.9336 139.555 76.3711 139.625 83.7305V92.168ZM133.121 83.2734C133.121 77.7656 132.348 73.7578 130.801 71.25C129.254 68.7188 126.805 67.4531 123.453 67.4531C120.125 67.4531 117.699 68.707 116.176 71.2148C114.652 73.7227 113.867 77.5781 113.82 82.7812V93.1875C113.82 98.7188 114.617 102.809 116.211 105.457C117.828 108.082 120.266 109.395 123.523 109.395C126.734 109.395 129.113 108.152 130.66 105.668C132.23 103.184 133.051 99.2695 133.121 93.9258V83.2734ZM180.055 92.168C180.055 99.7852 178.754 105.445 176.152 109.148C173.551 112.852 169.484 114.703 163.953 114.703C158.492 114.703 154.449 112.898 151.824 109.289C149.199 105.656 147.84 100.242 147.746 93.0469V84.3633C147.746 76.8398 149.047 71.25 151.648 67.5938C154.25 63.9375 158.328 62.1094 163.883 62.1094C169.391 62.1094 173.445 63.8789 176.047 67.418C178.648 70.9336 179.984 76.3711 180.055 83.7305V92.168ZM173.551 83.2734C173.551 77.7656 172.777 73.7578 171.23 71.25C169.684 68.7188 167.234 67.4531 163.883 67.4531C160.555 67.4531 158.129 68.707 156.605 71.2148C155.082 73.7227 154.297 77.5781 154.25 82.7812V93.1875C154.25 98.7188 155.047 102.809 156.641 105.457C158.258 108.082 160.695 109.395 163.953 109.395C167.164 109.395 169.543 108.152 171.09 105.668C172.66 103.184 173.48 99.2695 173.551 93.9258V83.2734ZM188.844 110.59C188.844 109.465 189.172 108.527 189.828 107.777C190.508 107.027 191.516 106.652 192.852 106.652C194.188 106.652 195.195 107.027 195.875 107.777C196.578 108.527 196.93 109.465 196.93 110.59C196.93 111.668 196.578 112.57 195.875 113.297C195.195 114.023 194.188 114.387 192.852 114.387C191.516 114.387 190.508 114.023 189.828 113.297C189.172 112.57 188.844 111.668 188.844 110.59ZM188.879 79.5469C188.879 78.4219 189.207 77.4844 189.863 76.7344C190.543 75.9844 191.551 75.6094 192.887 75.6094C194.223 75.6094 195.23 75.9844 195.91 76.7344C196.613 77.4844 196.965 78.4219 196.965 79.5469C196.965 80.625 196.613 81.5273 195.91 82.2539C195.23 82.9805 194.223 83.3438 192.887 83.3438C191.551 83.3438 190.543 82.9805 189.863 82.2539C189.207 81.5273 188.879 80.625 188.879 79.5469ZM237.922 92.168C237.922 99.7852 236.621 105.445 234.02 109.148C231.418 112.852 227.352 114.703 221.82 114.703C216.359 114.703 212.316 112.898 209.691 109.289C207.066 105.656 205.707 100.242 205.613 93.0469V84.3633C205.613 76.8398 206.914 71.25 209.516 67.5938C212.117 63.9375 216.195 62.1094 221.75 62.1094C227.258 62.1094 231.312 63.8789 233.914 67.418C236.516 70.9336 237.852 76.3711 237.922 83.7305V92.168ZM231.418 83.2734C231.418 77.7656 230.645 73.7578 229.098 71.25C227.551 68.7188 225.102 67.4531 221.75 67.4531C218.422 67.4531 215.996 68.707 214.473 71.2148C212.949 73.7227 212.164 77.5781 212.117 82.7812V93.1875C212.117 98.7188 212.914 102.809 214.508 105.457C216.125 108.082 218.562 109.395 221.82 109.395C225.031 109.395 227.41 108.152 228.957 105.668C230.527 103.184 231.348 99.2695 231.418 93.9258V83.2734ZM278.352 92.168C278.352 99.7852 277.051 105.445 274.449 109.148C271.848 112.852 267.781 114.703 262.25 114.703C256.789 114.703 252.746 112.898 250.121 109.289C247.496 105.656 246.137 100.242 246.043 93.0469V84.3633C246.043 76.8398 247.344 71.25 249.945 67.5938C252.547 63.9375 256.625 62.1094 262.18 62.1094C267.688 62.1094 271.742 63.8789 274.344 67.418C276.945 70.9336 278.281 76.3711 278.352 83.7305V92.168ZM271.848 83.2734C271.848 77.7656 271.074 73.7578 269.527 71.25C267.98 68.7188 265.531 67.4531 262.18 67.4531C258.852 67.4531 256.426 68.707 254.902 71.2148C253.379 73.7227 252.594 77.5781 252.547 82.7812V93.1875C252.547 98.7188 253.344 102.809 254.938 105.457C256.555 108.082 258.992 109.395 262.25 109.395C265.461 109.395 267.84 108.152 269.387 105.668C270.957 103.184 271.777 99.2695 271.848 93.9258V83.2734ZM287.141 110.59C287.141 109.465 287.469 108.527 288.125 107.777C288.805 107.027 289.812 106.652 291.148 106.652C292.484 106.652 293.492 107.027 294.172 107.777C294.875 108.527 295.227 109.465 295.227 110.59C295.227 111.668 294.875 112.57 294.172 113.297C293.492 114.023 292.484 114.387 291.148 114.387C289.812 114.387 288.805 114.023 288.125 113.297C287.469 112.57 287.141 111.668 287.141 110.59ZM287.176 79.5469C287.176 78.4219 287.504 77.4844 288.16 76.7344C288.84 75.9844 289.848 75.6094 291.184 75.6094C292.52 75.6094 293.527 75.9844 294.207 76.7344C294.91 77.4844 295.262 78.4219 295.262 79.5469C295.262 80.625 294.91 81.5273 294.207 82.2539C293.527 82.9805 292.52 83.3438 291.184 83.3438C289.848 83.3438 288.84 82.9805 288.16 82.2539C287.504 81.5273 287.176 80.625 287.176 79.5469ZM336.219 92.168C336.219 99.7852 334.918 105.445 332.316 109.148C329.715 112.852 325.648 114.703 320.117 114.703C314.656 114.703 310.613 112.898 307.988 109.289C305.363 105.656 304.004 100.242 303.91 93.0469V84.3633C303.91 76.8398 305.211 71.25 307.812 67.5938C310.414 63.9375 314.492 62.1094 320.047 62.1094C325.555 62.1094 329.609 63.8789 332.211 67.418C334.812 70.9336 336.148 76.3711 336.219 83.7305V92.168ZM329.715 83.2734C329.715 77.7656 328.941 73.7578 327.395 71.25C325.848 68.7188 323.398 67.4531 320.047 67.4531C316.719 67.4531 314.293 68.707 312.77 71.2148C311.246 73.7227 310.461 77.5781 310.414 82.7812V93.1875C310.414 98.7188 311.211 102.809 312.805 105.457C314.422 108.082 316.859 109.395 320.117 109.395C323.328 109.395 325.707 108.152 327.254 105.668C328.824 103.184 329.645 99.2695 329.715 93.9258V83.2734ZM376.648 92.168C376.648 99.7852 375.348 105.445 372.746 109.148C370.145 112.852 366.078 114.703 360.547 114.703C355.086 114.703 351.043 112.898 348.418 109.289C345.793 105.656 344.434 100.242 344.34 93.0469V84.3633C344.34 76.8398 345.641 71.25 348.242 67.5938C350.844 63.9375 354.922 62.1094 360.477 62.1094C365.984 62.1094 370.039 63.8789 372.641 67.418C375.242 70.9336 376.578 76.3711 376.648 83.7305V92.168ZM370.145 83.2734C370.145 77.7656 369.371 73.7578 367.824 71.25C366.277 68.7188 363.828 67.4531 360.477 67.4531C357.148 67.4531 354.723 68.707 353.199 71.2148C351.676 73.7227 350.891 77.5781 350.844 82.7812V93.1875C350.844 98.7188 351.641 102.809 353.234 105.457C354.852 108.082 357.289 109.395 360.547 109.395C363.758 109.395 366.137 108.152 367.684 105.668C369.254 103.184 370.074 99.2695 370.145 93.9258V83.2734Z" fill="black"/>
<rect x="45" y="178" width="393.662" height="258" rx="12.5" fill="#ED4040" stroke="black" stroke-width="0.5" stroke-miterlimit="2.61313"/>
<path d="M412.545 419.716V420.976H407.097V419.716H412.545ZM407.097 422.98V421.684H412.545V422.98H407.097ZM406.209 424.192H407.097V423.748H412.545V424.156H413.481V418.948H406.209V424.192ZM411.993 417.1C412.293 416.62 412.617 415.936 412.929 415.312L412.113 415.12H414.489V414.316H410.193V413.224H409.281V414.316H405.141V415.12H411.945C411.765 415.672 411.405 416.452 411.129 416.956L411.669 417.1H407.793L408.405 416.944C408.297 416.44 407.997 415.684 407.637 415.132L406.785 415.312C407.097 415.852 407.397 416.584 407.493 417.1H404.457V417.916H415.077V417.1H411.993ZM421.317 418.636V420.472H418.461C418.497 420.124 418.509 419.776 418.509 419.464V418.636H421.317ZM425.229 420.472H422.181V418.636H425.229V420.472ZM426.117 417.88H417.633V419.464C417.633 420.712 417.441 422.404 416.157 423.64C416.349 423.76 416.709 424.072 416.829 424.252C417.717 423.4 418.137 422.308 418.353 421.252H425.229V421.852H426.117V417.88ZM426.873 415V414.22H422.193V413.2H421.305V414.22H416.649V415H421.305V416.176H417.357V416.944H426.357V416.176H422.193V415H426.873Z" fill="white" fill-opacity="0.45"/>
<path d="M65.5938 419.629C65.5938 420.898 65.377 421.842 64.9434 422.459C64.5098 423.076 63.8321 423.385 62.9102 423.385C62.0001 423.385 61.3262 423.084 60.8887 422.482C60.4512 421.877 60.2247 420.975 60.209 419.775V418.328C60.209 417.074 60.4258 416.143 60.8594 415.533C61.293 414.924 61.9727 414.619 62.8985 414.619C63.8165 414.619 64.4922 414.914 64.9258 415.504C65.3594 416.09 65.5821 416.996 65.5938 418.223V419.629ZM64.5098 418.147C64.5098 417.229 64.3809 416.561 64.1231 416.143C63.8653 415.721 63.4571 415.51 62.8985 415.51C62.3438 415.51 61.9395 415.719 61.6856 416.137C61.4317 416.555 61.3008 417.197 61.293 418.064V419.799C61.293 420.721 61.4258 421.402 61.6915 421.844C61.961 422.281 62.3672 422.5 62.9102 422.5C63.4454 422.5 63.8419 422.293 64.0997 421.879C64.3614 421.465 64.4981 420.813 64.5098 419.922V418.147ZM67.0587 422.699C67.0587 422.512 67.1133 422.355 67.2227 422.23C67.336 422.105 67.504 422.043 67.7266 422.043C67.9493 422.043 68.1172 422.105 68.2305 422.23C68.3477 422.355 68.4063 422.512 68.4063 422.699C68.4063 422.879 68.3477 423.029 68.2305 423.15C68.1172 423.272 67.9493 423.332 67.7266 423.332C67.504 423.332 67.336 423.272 67.2227 423.15C67.1133 423.029 67.0587 422.879 67.0587 422.699ZM67.0645 417.525C67.0645 417.338 67.1192 417.182 67.2286 417.057C67.3419 416.932 67.5098 416.869 67.7325 416.869C67.9551 416.869 68.1231 416.932 68.2364 417.057C68.3536 417.182 68.4122 417.338 68.4122 417.525C68.4122 417.705 68.3536 417.855 68.2364 417.977C68.1231 418.098 67.9551 418.158 67.7325 418.158C67.5098 418.158 67.3419 418.098 67.2286 417.977C67.1192 417.855 67.0645 417.705 67.0645 417.525ZM71.4649 418.475H72.2794C72.7911 418.467 73.1934 418.332 73.4864 418.07C73.7794 417.809 73.9258 417.455 73.9258 417.01C73.9258 416.01 73.4278 415.51 72.4317 415.51C71.963 415.51 71.588 415.645 71.3067 415.914C71.0294 416.18 70.8907 416.533 70.8907 416.975H69.8067C69.8067 416.299 70.0528 415.738 70.545 415.293C71.0411 414.844 71.67 414.619 72.4317 414.619C73.2364 414.619 73.8672 414.832 74.3243 415.258C74.7813 415.684 75.0098 416.275 75.0098 417.033C75.0098 417.404 74.8887 417.764 74.6465 418.111C74.4083 418.459 74.0821 418.719 73.668 418.891C74.1368 419.039 74.4981 419.285 74.752 419.629C75.0098 419.973 75.1387 420.393 75.1387 420.889C75.1387 421.654 74.8887 422.262 74.3887 422.711C73.8887 423.16 73.2383 423.385 72.4376 423.385C71.6368 423.385 70.9844 423.168 70.4805 422.734C69.9805 422.301 69.7305 421.729 69.7305 421.018H70.8204C70.8204 421.467 70.9669 421.826 71.2598 422.096C71.5528 422.365 71.9454 422.5 72.4376 422.5C72.961 422.5 73.3614 422.363 73.6387 422.09C73.9161 421.816 74.0547 421.424 74.0547 420.912C74.0547 420.416 73.9024 420.035 73.5977 419.77C73.293 419.504 72.8536 419.367 72.2794 419.359H71.4649V418.475ZM81.9766 419.629C81.9766 420.898 81.7598 421.842 81.3262 422.459C80.8926 423.076 80.2149 423.385 79.293 423.385C78.3829 423.385 77.709 423.084 77.2715 422.482C76.834 421.877 76.6075 420.975 76.5919 419.775V418.328C76.5919 417.074 76.8087 416.143 77.2422 415.533C77.6758 414.924 78.3555 414.619 79.2813 414.619C80.1993 414.619 80.8751 414.914 81.3087 415.504C81.7422 416.09 81.9649 416.996 81.9766 418.223V419.629ZM80.8926 418.147C80.8926 417.229 80.7637 416.561 80.5059 416.143C80.2481 415.721 79.8399 415.51 79.2813 415.51C78.7266 415.51 78.3223 415.719 78.0684 416.137C77.8145 416.555 77.6837 417.197 77.6758 418.064V419.799C77.6758 420.721 77.8087 421.402 78.0743 421.844C78.3438 422.281 78.7501 422.5 79.293 422.5C79.8282 422.5 80.2247 422.293 80.4825 421.879C80.7442 421.465 80.8809 420.813 80.8926 419.922V418.147Z" fill="white" fill-opacity="0.45"/>
<g opacity="0.45">
<line x1="93.7007" y1="414.197" x2="93.7007" y2="422.07" stroke="white" stroke-width="0.5"/>
<line x1="93.4507" y1="413.947" x2="98.9014" y2="413.947" stroke="white" stroke-width="0.5"/>
<line x1="93.4507" y1="421.82" x2="98.9014" y2="421.82" stroke="white" stroke-width="0.5"/>
<line x1="102.785" y1="410.563" x2="102.785" y2="425.099" stroke="white" stroke-width="0.5"/>
<line x1="98.7387" y1="414.007" x2="102.978" y2="410.374" stroke="white" stroke-width="0.5"/>
<line x1="98.4411" y1="421.867" x2="102.681" y2="424.895" stroke="white" stroke-width="0.5"/>
<line x1="96.4789" y1="413.947" x2="99.507" y2="413.947" stroke="white" stroke-width="0.5"/>
<line x1="95.8733" y1="421.82" x2="99.5071" y2="421.82" stroke="white" stroke-width="0.5"/>
<path d="M104.352 413.592L106.775 415.408L107.683 417.528L106.775 419.951L104.352 422.373" stroke="white" stroke-width="0.5"/>
<path d="M104.352 410.563L108.289 414.197L109.5 417.831L108.289 421.162L104.352 425.099" stroke="white" stroke-width="0.5"/>
</g>
<circle cx="242.437" cy="306.394" r="70.2535" fill="#FFEF62"/>
</svg>
