<svg width="327" height="215" viewBox="0 0 327 215" fill="none" xmlns="http://www.w3.org/2000/svg">
<rect x="1" y="1" width="325" height="213" rx="12.5" fill="#ED4040" stroke="black" stroke-width="0.5" stroke-miterlimit="2.61313"/>
<path d="M301.784 199.448V200.708H296.336V199.448H301.784ZM296.336 202.712V201.416H301.784V202.712H296.336ZM295.448 203.924H296.336V203.48H301.784V203.888H302.72V198.68H295.448V203.924ZM301.232 196.832C301.532 196.352 301.856 195.668 302.168 195.044L301.352 194.852H303.728V194.048H299.432V192.956H298.52V194.048H294.38V194.852H301.184C301.004 195.404 300.644 196.184 300.368 196.688L300.908 196.832H297.032L297.644 196.676C297.536 196.172 297.236 195.416 296.876 194.864L296.024 195.044C296.336 195.584 296.636 196.316 296.732 196.832H293.696V197.648H304.316V196.832H301.232ZM310.556 198.368V200.204H307.7C307.736 199.856 307.748 199.508 307.748 199.196V198.368H310.556ZM314.468 200.204H311.42V198.368H314.468V200.204ZM315.356 197.612H306.872V199.196C306.872 200.444 306.68 202.136 305.396 203.372C305.588 203.492 305.948 203.804 306.068 203.984C306.956 203.132 307.376 202.04 307.592 200.984H314.468V201.584H315.356V197.612ZM316.112 194.732V193.952H311.432V192.932H310.544V193.952H305.888V194.732H310.544V195.908H306.596V196.676H315.596V195.908H311.432V194.732H316.112Z" fill="white" fill-opacity="0.45"/>
<path d="M19.0586 199.361C19.0586 200.631 18.8418 201.574 18.4082 202.191C17.9746 202.809 17.2969 203.117 16.375 203.117C15.4648 203.117 14.791 202.816 14.3535 202.215C13.916 201.609 13.6895 200.707 13.6738 199.508V198.061C13.6738 196.807 13.8906 195.875 14.3242 195.266C14.7578 194.656 15.4375 194.352 16.3633 194.352C17.2812 194.352 17.957 194.646 18.3906 195.236C18.8242 195.822 19.0469 196.729 19.0586 197.955V199.361ZM17.9746 197.879C17.9746 196.961 17.8457 196.293 17.5879 195.875C17.3301 195.453 16.9219 195.242 16.3633 195.242C15.8086 195.242 15.4043 195.451 15.1504 195.869C14.8965 196.287 14.7656 196.93 14.7578 197.797V199.531C14.7578 200.453 14.8906 201.135 15.1562 201.576C15.4258 202.014 15.832 202.232 16.375 202.232C16.9102 202.232 17.3066 202.025 17.5645 201.611C17.8262 201.197 17.9629 200.545 17.9746 199.654V197.879ZM20.5234 202.432C20.5234 202.244 20.5781 202.088 20.6875 201.963C20.8008 201.838 20.9688 201.775 21.1914 201.775C21.4141 201.775 21.582 201.838 21.6953 201.963C21.8125 202.088 21.8711 202.244 21.8711 202.432C21.8711 202.611 21.8125 202.762 21.6953 202.883C21.582 203.004 21.4141 203.064 21.1914 203.064C20.9688 203.064 20.8008 203.004 20.6875 202.883C20.5781 202.762 20.5234 202.611 20.5234 202.432ZM20.5293 197.258C20.5293 197.07 20.584 196.914 20.6934 196.789C20.8066 196.664 20.9746 196.602 21.1973 196.602C21.4199 196.602 21.5879 196.664 21.7012 196.789C21.8184 196.914 21.877 197.07 21.877 197.258C21.877 197.438 21.8184 197.588 21.7012 197.709C21.5879 197.83 21.4199 197.891 21.1973 197.891C20.9746 197.891 20.8066 197.83 20.6934 197.709C20.584 197.588 20.5293 197.438 20.5293 197.258ZM24.9297 198.207H25.7441C26.2559 198.199 26.6582 198.064 26.9512 197.803C27.2441 197.541 27.3906 197.188 27.3906 196.742C27.3906 195.742 26.8926 195.242 25.8965 195.242C25.4277 195.242 25.0527 195.377 24.7715 195.646C24.4941 195.912 24.3555 196.266 24.3555 196.707H23.2715C23.2715 196.031 23.5176 195.471 24.0098 195.025C24.5059 194.576 25.1348 194.352 25.8965 194.352C26.7012 194.352 27.332 194.564 27.7891 194.99C28.2461 195.416 28.4746 196.008 28.4746 196.766C28.4746 197.137 28.3535 197.496 28.1113 197.844C27.873 198.191 27.5469 198.451 27.1328 198.623C27.6016 198.771 27.9629 199.018 28.2168 199.361C28.4746 199.705 28.6035 200.125 28.6035 200.621C28.6035 201.387 28.3535 201.994 27.8535 202.443C27.3535 202.893 26.7031 203.117 25.9023 203.117C25.1016 203.117 24.4492 202.9 23.9453 202.467C23.4453 202.033 23.1953 201.461 23.1953 200.75H24.2852C24.2852 201.199 24.4316 201.559 24.7246 201.828C25.0176 202.098 25.4102 202.232 25.9023 202.232C26.4258 202.232 26.8262 202.096 27.1035 201.822C27.3809 201.549 27.5195 201.156 27.5195 200.645C27.5195 200.148 27.3672 199.768 27.0625 199.502C26.7578 199.236 26.3184 199.1 25.7441 199.092H24.9297V198.207ZM35.4414 199.361C35.4414 200.631 35.2246 201.574 34.791 202.191C34.3574 202.809 33.6797 203.117 32.7578 203.117C31.8477 203.117 31.1738 202.816 30.7363 202.215C30.2988 201.609 30.0723 200.707 30.0566 199.508V198.061C30.0566 196.807 30.2734 195.875 30.707 195.266C31.1406 194.656 31.8203 194.352 32.7461 194.352C33.6641 194.352 34.3398 194.646 34.7734 195.236C35.207 195.822 35.4297 196.729 35.4414 197.955V199.361ZM34.3574 197.879C34.3574 196.961 34.2285 196.293 33.9707 195.875C33.7129 195.453 33.3047 195.242 32.7461 195.242C32.1914 195.242 31.7871 195.451 31.5332 195.869C31.2793 196.287 31.1484 196.93 31.1406 197.797V199.531C31.1406 200.453 31.2734 201.135 31.5391 201.576C31.8086 202.014 32.2148 202.232 32.7578 202.232C33.293 202.232 33.6895 202.025 33.9473 201.611C34.209 201.197 34.3457 200.545 34.3574 199.654V197.879Z" fill="white" fill-opacity="0.45"/>
<g opacity="0.45">
<line x1="41.25" y1="196" x2="41.25" y2="202.5" stroke="white" stroke-width="0.5"/>
<line x1="41" y1="195.75" x2="45.5" y2="195.75" stroke="white" stroke-width="0.5"/>
<line x1="41" y1="202.25" x2="45.5" y2="202.25" stroke="white" stroke-width="0.5"/>
<line x1="48.75" y1="193" x2="48.75" y2="205" stroke="white" stroke-width="0.5"/>
<line x1="45.3373" y1="195.81" x2="48.8373" y2="192.81" stroke="white" stroke-width="0.5"/>
<line x1="45.1453" y1="202.297" x2="48.6453" y2="204.797" stroke="white" stroke-width="0.5"/>
<line x1="43.5" y1="195.75" x2="46" y2="195.75" stroke="white" stroke-width="0.5"/>
<line x1="43" y1="202.25" x2="46" y2="202.25" stroke="white" stroke-width="0.5"/>
<path d="M50 195.5L52 197L52.75 198.75L52 200.75L50 202.75" stroke="white" stroke-width="0.5"/>
<path d="M50 193L53.25 196L54.25 199L53.25 201.75L50 205" stroke="white" stroke-width="0.5"/>
</g>
<circle cx="164" cy="107" r="58" fill="#FFEF62"/>
</svg>
